# xmcd
#
# Track frame offsets: 
#        150
#        15685
#        29132
#        43576
#        56781
#        70418
#        85813
#        97185
#        110430
#        126677
#
# Disc length: 1877 seconds
#
# Revision: 0
# Processed by: cddbd v1.5.1PL2 Copyright (c) Steve Scherf et al.
# Submitted via: ExactAudioCopy v0.95b4
#
DISCID=9607530a
DTITLE=Mel Tillis - Your Body Is An Outlaw
DYEAR=1980
DGENRE=Country
TTITLE0=Your Body Is An Outlaw
TTITLE1=Steppin' Out
TTITLE2=Love Up A Storm
TTITLE3=Whiskey Chasin'
TTITLE4=Stay A Little Longer
TTITLE5=She's Just Being A Woman
TTITLE6=Rain On My Parade
TTITLE7=Sweet Little Miss Blue Eyes
TTITLE8=A Thing Called Sadness
TTITLE9=Cherokee Maiden
EXTD=
EXTT0=
EXTT1=
EXTT2=
EXTT3=
EXTT4=
EXTT5=
EXTT6=
EXTT7=
EXTT8=
EXTT9=
PLAYORDER=
